<?xml version="1.0" encoding="utf-8"?>
<!-- Generator: Adobe Illustrator 23.0.1, SVG Export Plug-In . SVG Version: 6.00 Build 0)  -->
<svg version="1.1" id="Layer_1" xmlns="http://www.w3.org/2000/svg" xmlns:xlink="http://www.w3.org/1999/xlink" x="0px" y="0px"
	 viewBox="0 0 612 792" style="enable-background:new 0 0 612 792;" xml:space="preserve">
<style type="text/css">
	.st0{fill:#07A2FE;}
</style>
<g id="XMLID_2_">
	<g>
		<path class="st0" d="M411.71,362.39c0,0,0.56,3.97-3.35,4.67l-114.78,37.6l-0.28-32.73c0,0-0.42-4.19,3.03-4.73l78.2-24.19
			c0,0,2.98-0.6,2.58-4.22l-0.01-72c0,0,0.7-3.02-3-4.31l-119.43-42.1l48.96-15.95c0,0,1.96-0.67,4.48,0.14l59.85,19.41l40.24,13.04
			c0,0,3.5,0.37,3.5,4.03L411.71,362.39z"/>
		<path class="st0" d="M339.01,266.56l0.05,0.72l-51.63,18.46c0,0-3.19,1.7-6.15,0.74l-92.83-29.91c0,0-2.74-1.4-2.22-3.32
			c0,0,0.35-7.68-0.03-7.9c-0.38-0.23-0.12-3.4,2.25-4.35l30.19-12.12c0,0,2.72-0.84,5.3,0L339.01,266.56z"/>
		<path class="st0" d="M289.43,404.28l-98.68-33.62c-4.68-1.5-3.92-4.78-3.92-4.78l-0.63-106.59l32.38,10.24
			c2.86,0.91,2.64,3.77,2.64,3.77l-0.08,69.13c-0.6,2.83,2.03,3.75,2.03,3.75l64.26,21.86c1.92,0.89,2.35,2.46,2.35,2.46l0.07,32.04
			c0.04,0.33-0.06,0.62-0.06,0.62L289.43,404.28z"/>
	</g>
	<g>
	</g>
</g>
</svg>
